Coordinates
version=1
nRows=5
nColumns=40
inDegrees=yes

Units are S.I. units (second, meters, Newtons, ...)
Angles are in degrees.

endheader
time	pelvis_tilt	pelvis_list	pelvis_rotation	pelvis_tx	pelvis_ty	pelvis_tz	hip_flexion_r	hip_adduction_r	hip_rotation_r	knee_angle_r	knee_angle_r_beta	ankle_angle_r	subtalar_angle_r	mtp_angle_r	hip_flexion_l	hip_adduction_l	hip_rotation_l	knee_angle_l	knee_angle_l_beta	ankle_angle_l	subtalar_angle_l	mtp_angle_l	lumbar_extension	lumbar_bending	lumbar_rotation	arm_flex_r	arm_add_r	arm_rot_r	elbow_flex_r	pro_sup_r	wrist_flex_r	wrist_dev_r	arm_flex_l	arm_add_l	arm_rot_l	elbow_flex_l	pro_sup_l	wrist_flex_l	wrist_dev_l
     50.67500000	     -3.15290736	     -4.45029188	      5.72235601	      1.04960155	      0.92169872	      0.43866224	      8.59557143	     -2.58854202	    -12.22052968	     37.85420165	     37.85420165	     11.89186257	    -13.53966295	    -11.88172246	     25.38206850	     -5.18697884	      0.79431163	     27.33786587	     27.33786587	      8.23339147	    -12.77681079	      1.07741315	     -9.68525239	      1.38948392	      3.31990417	     28.73015337	    -11.98040276	      8.57922754	     59.28806228	     45.60547246	      0.00000000	      0.00000000	      3.51103736	     -9.93699840	    -12.34061046	     32.72214327	     46.57160682	      0.00000000	      0.00000000
     50.68800000	     -2.98667388	     -4.28852895	      5.37483333	      1.04994623	      0.92240616	      0.43624092	     10.46290250	     -3.43509604	    -11.75308052	     41.97533814	     41.97533814	     10.07800064	    -14.70261523	    -12.37351843	     24.66231127	     -5.02629057	      0.38179502	     27.27511297	     27.27511297	      8.61401544	    -12.86084617	      0.93972808	     -9.96663064	      1.15593884	      3.28125139	     27.25928938	    -12.20730032	      8.80172846	     58.02130067	     45.63098979	      0.00000000	      0.00000000	      4.24054394	    -10.13986010	    -12.27011012	     33.21648289	     46.57137073	      0.00000000	      0.00000000
     50.70100000	     -2.89886935	     -4.21313040	      5.04017728	      1.05015154	      0.92305929	      0.43382856	     12.44890096	     -4.09925318	    -11.16173446	     45.87768217	     45.87768217	      7.33573081	    -16.54098965	    -13.60717072	     24.03863145	     -4.87290360	      0.22268186	     27.17850579	     27.17850579	      8.79729082	    -13.27669996	      0.89886610	    -10.06635918	      1.08616852	      3.34790075	     26.27576868	    -12.27721688	      9.07322244	     54.30974443	     45.73392490	      0.00000000	      0.00000000	      4.96352206	    -10.33872950	    -11.53083750	     33.96727196	     46.47649770	      0.00000000	      0.00000000
     50.71400000	     -2.73704655	     -4.02029640	      4.74950497	      1.05037363	      0.92369236	      0.43138296	     14.42164906	     -4.96846009	    -10.74420696	     49.84553342	     49.84553342	      4.92893676	    -17.51378756	    -13.43734497	     23.30353945	     -4.63614473	     -0.12827426	     27.05859267	     27.05859267	      9.13298398	    -13.32584540	      0.78951952	    -10.33125004	      0.90521059	      3.05582902	     24.75604260	    -12.36195376	      9.26559030	     52.90001236	     45.76506813	      0.00000000	      0.00000000	      5.70213117	    -10.56044610	    -11.38456653	     34.45520483	     46.46808518	      0.00000000	      0.00000000
     50.72700000	     -2.54837808	     -3.86936909	      4.46980569	      1.05057845	      0.92431425	      0.42900399	     16.38209416	     -5.74837449	    -10.27796866	     53.64445504	     53.64445504	      2.46244981	    -18.25678448	    -12.82397898	     22.57767957	     -4.41782929	     -0.35418925	     26.99231312	     26.99231312	      9.44606501	    -13.46403546	      0.70549296	    -10.57598323	      0.78079267	      2.92106121	     23.18311254	    -12.58729348	      9.43094246	     51.16888627	     45.80903921	      0.00000000	      0.00000000	      6.53778301	    -10.71607329	    -11.20254929	     35.03355815	     46.45718884	      0.00000000	      0.00000000
